HIERARCHY
ROOT Hips
{
    OFFSET 0.000000 0.000000 0.000000
    CHANNELS 6 Xposition Yposition Zposition Zrotation Xrotation Yrotation
    JOINT Spine
    {
        OFFSET -0.000000 14.517291 0.000000
        CHANNELS 3 Zrotation Xrotation Yrotation
        JOINT Spine1
        {
            OFFSET -0.000000 37.558300 0.000000
            CHANNELS 3 Zrotation Xrotation Yrotation
            JOINT Neck
            {
                OFFSET -0.000000 37.404057 3.400369
                CHANNELS 3 Zrotation Xrotation Yrotation
                JOINT Head
                {
                    OFFSET -0.000000 24.785618 -3.540803
                    CHANNELS 3 Zrotation Xrotation Yrotation
                    End Site
                    {
                        OFFSET -0.000000 35.408028 0.000000
                    }
                }
            }
            JOINT LeftShoulder
            {
                OFFSET 6.992933 33.973492 -0.192664
                CHANNELS 3 Zrotation Xrotation Yrotation
                JOINT LeftArm
                {
                    OFFSET 21.527611 0.000000 0.000000
                    CHANNELS 3 Zrotation Xrotation Yrotation
                    JOINT LeftForeArm
                    {
                        OFFSET 56.353916 0.000000 0.000000
                        CHANNELS 3 Zrotation Xrotation Yrotation
                        JOINT LeftHand
                        {
                            OFFSET 47.774071 0.000000 0.000000
                            CHANNELS 3 Zrotation Xrotation Yrotation
                            End Site
                            {
                                OFFSET 26.556021 0.000000 0.000000
                            }
                        }
                    }
                }
            }
            JOINT RightShoulder
            {
                OFFSET -7.065357 33.973492 -0.192664
                CHANNELS 3 Zrotation Xrotation Yrotation
                JOINT RightArm
                {
                    OFFSET -21.527611 0.000000 0.000000
                    CHANNELS 3 Zrotation Xrotation Yrotation
                    JOINT RightForeArm
                    {
                        OFFSET -56.353916 0.000000 0.000000
                        CHANNELS 3 Zrotation Xrotation Yrotation
                        JOINT RightHand
                        {
                            OFFSET -47.774071 0.000000 0.000000
                            CHANNELS 3 Zrotation Xrotation Yrotation
                            End Site
                            {
                                OFFSET -26.556021 0.000000 0.000000
                            }
                        }
                    }
                }
            }
        }
    }
    JOINT LeftUpLeg
    {
        OFFSET 17.704014 0.000000 0.000000
        CHANNELS 3 Zrotation Xrotation Yrotation
        JOINT LeftLeg
        {
            OFFSET -0.000000 -81.181816 0.000000
            CHANNELS 3 Zrotation Xrotation Yrotation
            JOINT LeftFoot
            {
                OFFSET -0.000000 -62.821102 0.000000
                CHANNELS 3 Zrotation Xrotation Yrotation
                JOINT LeftToeBase
                {
                    OFFSET -0.000000 -11.507608 26.556021
                    CHANNELS 3 Zrotation Xrotation Yrotation
                    End Site
                    {
                        OFFSET -0.000000 0.000000 7.081605
                    }
                }
            }
        }
    }
    JOINT RightUpLeg
    {
        OFFSET -17.704014 0.000000 0.000000
        CHANNELS 3 Zrotation Xrotation Yrotation
        JOINT RightLeg
        {
            OFFSET -0.000000 -81.181816 0.000000
            CHANNELS 3 Zrotation Xrotation Yrotation
            JOINT RightFoot
            {
                OFFSET -0.000000 -62.821102 0.000000
                CHANNELS 3 Zrotation Xrotation Yrotation
                JOINT RightToeBase
                {
                    OFFSET -0.000000 -11.507608 26.556021
                    CHANNELS 3 Zrotation Xrotation Yrotation
                    End Site
                    {
                        OFFSET -0.000000 0.000000 7.081605
                    }
                }
            }
        }
    }
}
MOTION
Frames:    9
Frame Time:    0.008333
17.254564    154.131897    -98.809647    0.471056    -18.963884    23.123516    -1.597988    -1.188994    0.784429    -3.144287    3.364537    0.357111    8.192566    -0.066923    -4.595661    8.479473    8.785109    -5.449663    3.566952    8.966365    -16.951111    -28.237358    24.252106    -55.253914    -0.861384    -8.868284    -93.898026    12.712069    -10.958979    -10.760398    -7.348523    1.306168    -0.588508    30.571096    -17.566797    63.103489    -23.255127    -20.064425    66.054749    -1.643747    -5.602052    36.691059    10.082562    12.131531    -1.162118    -11.841915    38.473198    -21.252659    20.081875    -28.843607    47.215286    0.000000    0.000000    0.000000    -13.324256    -11.728726    -2.550227    14.539490    32.043724    -11.906317    12.172525    10.582035    -17.637726    0.000000    0.000000    0.000000    
17.128298    154.217285    -98.746910    0.448422    -18.806744    23.223547    -1.575212    -1.071067    0.754850    -3.098973    3.369538    0.345671    8.229965    -0.053208    -4.604339    8.392474    8.565456    -5.452813    3.592000    8.960380    -17.005474    -28.181696    24.261000    -55.313599    -0.802484    -8.941573    -93.845963    12.734376    -10.968530    -10.733901    -7.342515    1.273007    -0.614620    30.577282    -17.653027    63.093494    -23.254345    -20.042086    66.035080    -1.643156    -5.586244    36.794235    10.119232    12.030787    -1.240041    -11.804985    38.275295    -21.301365    19.945982    -28.775324    47.156029    0.000000    0.000000    0.000000    -13.314647    -11.814687    -2.624843    14.521321    31.987268    -11.923844    12.142533    10.603325    -17.665342    0.000000    0.000000    0.000000    
17.054613    154.309952    -98.676834    0.466742    -18.652552    23.333546    -1.489440    -0.957594    0.711609    -3.190935    3.389181    0.333683    8.324928    -0.097228    -4.625276    8.279613    8.481047    -5.493740    3.667365    8.952969    -17.057570    -28.228943    24.167982    -55.311607    -0.897797    -8.869460    -93.844528    12.776178    -11.006573    -10.785133    -7.292641    1.266497    -0.591346    30.483007    -17.710718    63.049377    -23.446836    -20.039078    65.888214    -1.771857    -5.539204    36.901035    10.094591    11.980897    -1.327260    -11.762082    38.018063    -21.295145    19.786997    -28.684486    47.056816    0.000000    0.000000    0.000000    -13.375366    -11.865344    -2.683561    14.558386    31.912579    -11.963736    12.115856    10.626003    -17.708811    0.000000    0.000000    0.000000    
16.930918    154.396240    -98.603264    0.450646    -18.481808    23.429495    -1.455929    -0.836605    0.671276    -3.183025    3.372473    0.319078    8.357460    -0.117063    -4.621270    8.227339    8.348014    -5.489882    3.671145    8.921012    -17.092638    -28.128471    24.251146    -55.355793    -0.769981    -9.015823    -93.816826    12.730404    -11.009318    -10.749084    -7.265366    1.234953    -0.589796    30.509197    -17.827984    63.038876    -23.403204    -19.964430    65.921333    -1.778695    -5.480945    36.815670    10.122829    11.911432    -1.577469    -11.858468    37.707153    -21.118937    19.659319    -28.600002    46.982700    0.000000    0.000000    0.000000    -13.381299    -11.961877    -2.768570    14.542049    31.869682    -11.976477    12.103745    10.634471    -17.733282    0.000000    0.000000    0.000000    
16.799490    154.487350    -98.531143    0.428050    -18.301397    23.520117    -1.445541    -0.752281    0.632812    -3.129789    3.384663    0.304817    8.337232    -0.091546    -4.630630    8.247138    8.172062    -5.480499    3.690766    8.913086    -17.130123    -28.129002    24.187267    -55.381996    -0.845642    -9.003941    -93.804573    12.744962    -11.089557    -10.852666    -7.288414    1.199554    -0.555712    30.525118    -17.927645    63.005680    -23.406240    -19.946096    65.879677    -1.806365    -5.482306    36.889465    10.152709    11.813174    -1.600148    -11.787449    37.471748    -21.156387    19.486891    -28.535772    46.854733    0.000000    0.000000    0.000000    -13.377481    -12.067221    -2.847899    14.525358    31.811892    -12.011225    12.070305    10.659161    -17.760607    0.000000    0.000000    0.000000    
16.667732    154.574066    -98.464554    0.421405    -18.109917    23.604679    -1.403990    -0.659127    0.615698    -3.162073    3.415496    0.300388    8.394688    -0.137690    -4.622063    8.190419    8.031177    -5.477564    3.733728    8.847909    -17.147314    -28.103224    24.172703    -55.441814    -0.793448    -9.008492    -93.777718    12.734363    -11.037823    -10.851027    -7.262371    1.101796    -0.574711    30.480423    -17.950251    62.965179    -23.462467    -19.972868    65.816277    -1.782589    -5.483802    36.925583    10.159852    11.703808    -1.625119    -11.726106    37.253384    -21.194214    19.296206    -28.472271    46.740108    0.000000    0.000000    0.000000    -13.393450    -12.186685    -2.940209    14.492626    31.771713    -12.008247    12.044687    10.673427    -17.779202    0.000000    0.000000    0.000000    
16.540293    154.655182    -98.387512    0.419287    -17.921598    23.699471    -1.398156    -0.525048    0.585560    -3.137787    3.335457    0.287076    8.410975    -0.059237    -4.648886    8.173457    7.863140    -5.491250    3.733419    8.907717    -17.175083    -28.021761    24.138073    -55.525814    -0.830918    -9.058365    -93.766197    12.752433    -11.128162    -10.850281    -7.228066    1.175988    -0.575587    30.468220    -18.081203    63.009007    -23.451546    -19.935982    65.772919    -1.838918    -5.483940    36.928997    10.164324    11.592086    -1.650807    -11.651345    37.057323    -21.227859    19.099331    -28.423716    46.605282    0.000000    0.000000    0.000000    -13.422195    -12.295483    -3.024833    14.485719    31.734106    -12.054621    12.030695    10.664860    -17.770428    0.000000    0.000000    0.000000    
16.415195    154.740005    -98.310593    0.413377    -17.725733    23.801273    -1.350314    -0.449201    0.547798    -3.181091    3.385332    0.276773    8.449585    -0.106436    -4.650630    8.150739    7.749485    -5.495971    3.789253    8.843191    -17.199322    -27.973047    24.157948    -55.584808    -0.753981    -9.150387    -93.765266    12.795509    -11.141731    -10.837255    -7.231346    1.076846    -0.577653    30.481651    -18.118736    62.985283    -23.486914    -19.940947    65.728889    -1.879229    -5.490685    36.874104    10.165421    11.465962    -1.686448    -11.577260    36.866226    -21.283968    18.904507    -28.358177    46.506233    0.000000    0.000000    0.000000    -13.456373    -12.401999    -3.118462    14.485826    31.681974    -12.072918    12.011588    10.663341    -17.789583    0.000000    0.000000    0.000000    
16.275320    154.828217    -98.229271    0.394982    -17.536558    23.906507    -1.317920    -0.347350    0.521544    -3.188925    3.359876    0.267137    8.494871    -0.100524    -4.651978    8.133886    7.653756    -5.498162    3.821958    8.839504    -17.246834    -27.912846    24.161797    -55.649776    -0.695593    -9.248546    -93.742981    12.654263    -11.158629    -10.785313    -7.190344    1.050150    -0.558621    30.401806    -18.147923    62.932842    -23.572882    -20.011316    65.621376    -1.826548    -5.522954    36.962891    10.192302    11.331017    -1.741101    -11.525303    36.686073    -21.346586    18.736689    -28.279415    46.430561    0.000000    0.000000    0.000000    -13.463431    -12.508199    -3.225771    14.456130    31.639303    -12.101357    11.969932    10.680602    -17.772678    0.000000    0.000000    0.000000    
